<svg id="Capa_1" data-name="Capa 1" xmlns="http://www.w3.org/2000/svg" xmlns:xlink="http://www.w3.org/1999/xlink" viewBox="0 0 2110.75 1041.19"><defs><style>.cls-1{fill:#00121c;}.cls-2{fill:#fff;}.cls-3{fill:url(#Degradado_sin_nombre_131);}.cls-4{fill:url(#Degradado_sin_nombre_131-2);}.cls-5{fill:url(#Degradado_sin_nombre_131-3);}.cls-6{fill:url(#Degradado_sin_nombre_131-4);}.cls-7{fill:url(#Degradado_sin_nombre_131-5);}.cls-8{fill:url(#Degradado_sin_nombre_131-6);}.cls-9{fill:url(#Degradado_sin_nombre_131-7);}.cls-10{fill:url(#Degradado_sin_nombre_131-8);}</style><linearGradient id="Degradado_sin_nombre_131" x1="1986.09" y1="-103.49" x2="-178.16" y2="534.69" gradientUnits="userSpaceOnUse"><stop offset="0" stop-color="#00dbdb"/><stop offset="1" stop-color="#1490d7"/></linearGradient><linearGradient id="Degradado_sin_nombre_131-2" x1="2024.44" y1="26.58" x2="-139.81" y2="664.76" xlink:href="#Degradado_sin_nombre_131"/><linearGradient id="Degradado_sin_nombre_131-3" x1="2066.31" y1="168.56" x2="-97.94" y2="806.74" xlink:href="#Degradado_sin_nombre_131"/><linearGradient id="Degradado_sin_nombre_131-4" x1="1607.56" y1="197.05" x2="1395.34" y2="417.47" xlink:href="#Degradado_sin_nombre_131"/><linearGradient id="Degradado_sin_nombre_131-5" x1="2025.37" y1="29.74" x2="-138.88" y2="667.92" gradientTransform="translate(563.34 -1191.06) rotate(43.73)" xlink:href="#Degradado_sin_nombre_131"/><linearGradient id="Degradado_sin_nombre_131-6" x1="2062.18" y1="154.58" x2="-102.07" y2="792.76" gradientTransform="translate(-4.49 40.52) rotate(-1.27)" xlink:href="#Degradado_sin_nombre_131"/><linearGradient id="Degradado_sin_nombre_131-7" x1="1999.51" y1="-57.95" x2="-164.74" y2="580.23" gradientTransform="translate(1645.78 -1581.31) rotate(88.73)" xlink:href="#Degradado_sin_nombre_131"/><linearGradient id="Degradado_sin_nombre_131-8" x1="2127.07" y1="695.18" x2="1649.36" y2="451.58" xlink:href="#Degradado_sin_nombre_131"/></defs><rect class="cls-1" x="7.61" y="741.74" width="2011.38" height="299.45" rx="69.08"/><path class="cls-2" d="M156.9,833h13.74c16.49,0,27.48,11,27.48,27.48v20H171.39v-18a4.72,4.72,0,0,0-5-5h-5a4.72,4.72,0,0,0-5,5v62.95a4.72,4.72,0,0,0,5,5h5a4.72,4.72,0,0,0,5-5v-18h26.73v20c0,16.49-11,27.48-27.48,27.48H156.9c-16.48,0-27.48-11-27.48-27.48V860.49C129.42,844,140.42,833,156.9,833Z"/><path class="cls-2" d="M251.82,833c16.49,0,27.48,11,27.48,27.48v66.94c0,16.49-11,27.48-27.48,27.48H238.08c-16.48,0-27.47-11-27.47-27.48V860.49c0-16.49,11-27.48,27.47-27.48Zm-4.24,97.42a4.72,4.72,0,0,0,5-5V862.48a4.72,4.72,0,0,0-5-5h-5a4.72,4.72,0,0,0-5,5v62.95a4.72,4.72,0,0,0,5,5Z"/><path class="cls-2" d="M321.26,834v4.49A16.62,16.62,0,0,1,333.75,833h9.75c11.74,0,19.48,11,19.48,27.48v93.42H336.25V862.48a4.72,4.72,0,0,0-5-5h-5a4.72,4.72,0,0,0-5,5v91.43h-27V834Z"/><path class="cls-2" d="M404.19,833h13.74c16.49,0,27.48,11,27.48,27.48V873H418.68V862.48a4.72,4.72,0,0,0-5-5h-5a4.72,4.72,0,0,0-5,5v8.74a6.81,6.81,0,0,0,4.25,6.25l23.73,9A23,23,0,0,1,446.41,908v19.48c0,16.49-11,27.48-27.48,27.48H405.19c-16.49,0-27.48-11-27.48-27.48V913.69h27v11.74a4.72,4.72,0,0,0,5,5h5a4.72,4.72,0,0,0,5-5V913.94a6.75,6.75,0,0,0-4.5-6.49l-23.48-9a23.2,23.2,0,0,1-15-21.49V860.49C376.71,844,387.71,833,404.19,833Z"/><path class="cls-2" d="M485.87,780.55v30.22h-27V780.55Zm-27,53.46h27v119.9h-27Z"/><path class="cls-2" d="M530.08,833a17,17,0,0,1,13,5.74V834H569.8V974.89c0,16.49-11,27.49-27.48,27.49H529.08c-16.48,0-27.47-11-27.47-27.49V963.65h26.73v9.25a4.71,4.71,0,0,0,5,5h4.75a4.72,4.72,0,0,0,5-5V949.16a17,17,0,0,1-13,5.75h-9.74c-11.74,0-19.48-11-19.48-27.48V860.49c0-16.49,7.74-27.48,19.48-27.48Zm-2.24,92.42a4.72,4.72,0,0,0,5,5h5a4.72,4.72,0,0,0,5-5V862.48a4.72,4.72,0,0,0-5-5h-5a4.72,4.72,0,0,0-5,5Z"/><path class="cls-2" d="M584.79,834h27v91.42a4.72,4.72,0,0,0,5,5h5a4.72,4.72,0,0,0,5-5V834h26.73v119.9H626.75l-.24-4.5a16.64,16.64,0,0,1-12.5,5.5h-9.74c-11.74,0-19.48-11-19.48-27.48Z"/><path class="cls-2" d="M696,833h13.74c16.48,0,27.47,11,27.47,27.48V904.2H695.45v21.23a4.72,4.72,0,0,0,5,5h5a4.72,4.72,0,0,0,5-5V912.94h26.73v14.49c0,16.49-11,27.48-27.47,27.48H696c-16.49,0-27.48-11-27.48-27.48V860.49C668.47,844,679.46,833,696,833Zm-.5,48.71h15V862.48a4.72,4.72,0,0,0-5-5h-5a4.72,4.72,0,0,0-5,5Z"/><path class="cls-2" d="M751.9,834h27v91.42a4.72,4.72,0,0,0,5,5h5a4.72,4.72,0,0,0,5-5V834h26.73v119.9H793.86l-.24-4.5a16.64,16.64,0,0,1-12.5,5.5h-9.74c-11.74,0-19.48-11-19.48-27.48Z"/><path class="cls-2" d="M862.55,834v4.49A16.62,16.62,0,0,1,875,833h9.74c11.75,0,19.49,11,19.49,27.48v93.42H877.54V862.48a4.72,4.72,0,0,0-5-5h-5a4.72,4.72,0,0,0-5,5v91.43h-27V834Z"/><path class="cls-2" d="M946.23,834l-.25,4.74A17,17,0,0,1,959,833h9.75c11.74,0,19.48,11,19.48,27.48v66.94c0,16.49-7.74,27.48-19.48,27.48H959a16.16,16.16,0,0,1-12.74-5.75v52.21h-27V834Zm.25,91.42a4.72,4.72,0,0,0,5,5h5a4.72,4.72,0,0,0,5-5V862.48a4.72,4.72,0,0,0-5-5h-5a4.72,4.72,0,0,0-5,5Z"/><path class="cls-2" d="M1030.16,834v6.74c3.75-5,8.74-7.74,15-7.74h9.24v24.47h-11.24c-8,0-13,4-13,10v86.43h-27V834Z"/><path class="cls-2" d="M1089.62,833h13.74c16.48,0,27.47,11,27.47,27.48V904.2h-41.71v21.23a4.72,4.72,0,0,0,5,5h5a4.72,4.72,0,0,0,5-5V912.94h26.73v14.49c0,16.49-11,27.48-27.47,27.48h-13.74c-16.49,0-27.48-11-27.48-27.48V860.49C1062.14,844,1073.13,833,1089.62,833Zm-.5,48.71h15V862.48a4.72,4.72,0,0,0-5-5h-5a4.72,4.72,0,0,0-5,5Z"/><path class="cls-2" d="M1171.8,833h13.73c16.49,0,27.48,11,27.48,27.48V873h-26.73V862.48a4.72,4.72,0,0,0-5-5h-5a4.72,4.72,0,0,0-5,5v8.74a6.81,6.81,0,0,0,4.25,6.25l23.73,9A22.94,22.94,0,0,1,1214,908v19.48c0,16.49-11,27.48-27.47,27.48H1172.8c-16.49,0-27.48-11-27.48-27.48V913.69h27v11.74a4.72,4.72,0,0,0,5,5h5a4.72,4.72,0,0,0,5-5V913.94a6.76,6.76,0,0,0-4.49-6.49l-23.49-9a23.19,23.19,0,0,1-15-21.49V860.49C1144.32,844,1155.31,833,1171.8,833Z"/><path class="cls-2" d="M1259.47,856.49v67.2a5.25,5.25,0,0,0,5.5,5.49h12.49v24.73h-16.74c-17,0-28.23-11.24-28.23-28.23V856.49h-12.24V834h12.24V809h27v25h18v22.48Z"/><path class="cls-2" d="M1288.69,907.45c0-16.49,7.75-27.48,19.49-27.48h9.74a17,17,0,0,1,13,5.75v-22c0-3-2-6.25-5-6.25h-5c-3,0-5,3.26-5,6.25v8.75h-27v-12c0-16.49,11-27.48,27.47-27.48h13.74c16.49,0,27.48,11,27.48,27.48v93.42h-26.73v-4.75a17,17,0,0,1-13,5.75h-9.74c-11.74,0-19.49-11-19.49-27.48Zm27,18a4.72,4.72,0,0,0,5,5h5a4.72,4.72,0,0,0,5-5v-16a4.72,4.72,0,0,0-5-5h-5a4.71,4.71,0,0,0-5,5Z"/><path class="cls-2" d="M1372.63,834h27v4.49a16.62,16.62,0,0,1,12.49-5.49h9.75a16.15,16.15,0,0,1,12.74,5.74,20.52,20.52,0,0,1,14.73-5.74h11.5c13.48,0,22.48,11,22.48,27.48v93.42h-27V862.48a4.72,4.72,0,0,0-5-5h-5a4.72,4.72,0,0,0-5,5v91.43h-26.73V862.48a4.72,4.72,0,0,0-5-5h-5a4.72,4.72,0,0,0-5,5v91.43h-27Z"/><path class="cls-2" d="M1539.48,833c16.49,0,27.48,11,27.48,27.48v66.94c0,16.49-11,27.48-27.48,27.48h-13.74c-16.49,0-27.47-11-27.47-27.48V860.49c0-16.49,11-27.48,27.47-27.48Zm-4.25,97.42a4.72,4.72,0,0,0,5-5V862.48a4.72,4.72,0,0,0-5-5h-5a4.72,4.72,0,0,0-5,5v62.95a4.72,4.72,0,0,0,5,5Z"/><path class="cls-2" d="M1581,923.69h26.73v30.22H1581Z"/><path class="cls-2" d="M1649.14,833h13.74c16.49,0,27.48,11,27.48,27.48v20h-26.73v-18a4.72,4.72,0,0,0-5-5h-5a4.72,4.72,0,0,0-5,5v62.95a4.72,4.72,0,0,0,5,5h5a4.72,4.72,0,0,0,5-5v-18h26.73v20c0,16.49-11,27.48-27.48,27.48h-13.74c-16.49,0-27.48-11-27.48-27.48V860.49C1621.66,844,1632.65,833,1649.14,833Z"/><path class="cls-2" d="M1744.06,833c16.49,0,27.48,11,27.48,27.48v66.94c0,16.49-11,27.48-27.48,27.48h-13.74c-16.48,0-27.48-11-27.48-27.48V860.49c0-16.49,11-27.48,27.48-27.48Zm-4.24,97.42a4.72,4.72,0,0,0,5-5V862.48a4.72,4.72,0,0,0-5-5h-5a4.72,4.72,0,0,0-5,5v62.95a4.72,4.72,0,0,0,5,5Z"/><path class="cls-2" d="M1786.52,834h27v4.49A16.61,16.61,0,0,1,1826,833h9.74a16.14,16.14,0,0,1,12.74,5.74,20.54,20.54,0,0,1,14.74-5.74h11.49c13.49,0,22.48,11,22.48,27.48v93.42h-27V862.48a4.72,4.72,0,0,0-5-5h-5a4.72,4.72,0,0,0-5,5v91.43h-26.73V862.48a4.72,4.72,0,0,0-5-5h-5a4.72,4.72,0,0,0-5,5v91.43h-27Z"/><path class="cls-3" d="M152.53,645.9q-71.46-37.33-112-104.37T0,389.4q0-85.08,40.54-152.13t112-104.36Q224,95.57,313.09,95.58q81.89,0,146.11,28.9t106,83.49L476.86,286.8a43.38,43.38,0,0,1-57.64-.06q-42.95-37.82-96.49-37.83-59.43,0-95.54,38.14T191.07,389.4q0,64.25,36.12,102.36t95.54,38.13q70.63,0,122.82-65.83L565.17,570.83q-41.74,54.61-106,83.5t-146.11,28.9Q224,683.23,152.53,645.9Z"/><path class="cls-4" d="M679.17,613.38q-72.25-69.84-72.26-195.88V108.42H753.12a43.25,43.25,0,0,1,43.25,43.26v260.2q0,61.83,22.08,89.92t63.82,28.09q41.75,0,63.83-28.09t22.07-89.92V108.42h186.26V417.5q0,126-72.26,195.88t-201.5,69.85Q751.4,683.23,679.17,613.38Z"/><path class="cls-5" d="M1647.34,134.11q57.79,25.71,89.11,73.86t31.31,112.39q0,64.25-31.31,112.4t-89.11,73.85q-57.81,25.71-135.67,25.69h-81.08v94.83a43.25,43.25,0,0,1-43.26,43.25H1241.12v-562h270.55Q1589.52,108.42,1647.34,134.11Z"/><circle class="cls-6" cx="1489.56" cy="319.61" r="142.89"/><circle class="cls-1" cx="1497.22" cy="311.95" r="133.2"/><path class="cls-2" d="M1519.14,421.86a129.55,129.55,0,0,1-126.31-158.52,112.18,112.18,0,0,0,129.05,158.45C1521,421.81,1520.06,421.86,1519.14,421.86Z"/><path class="cls-2" d="M1475.52,193.78A129.55,129.55,0,0,1,1601.83,352.3a112.18,112.18,0,0,0-129-158.45C1473.7,193.83,1474.6,193.78,1475.52,193.78Z"/><path class="cls-2" d="M1546.75,365.66q-11.76,12.13-33.51,16v21.56h-27.38V382.65a130.71,130.71,0,0,1-27.89-4.46q-13.29-3.69-22-9.13l14.76-33.41a93.92,93.92,0,0,0,21.75,9,84.89,84.89,0,0,0,23.11,3.41q9.51,0,13.6-1.85c2.72-1.22,4.08-3.07,4.08-5.53,0-2.85-1.77-5-5.35-6.41s-9.42-3-17.57-4.66a201.11,201.11,0,0,1-26.21-7.09,44.71,44.71,0,0,1-18.28-12.44q-7.75-8.64-7.76-23.4a39.85,39.85,0,0,1,12.33-29.33q12.33-12.24,35.46-15.55V220.66h27.38v20.78q23.29,2.15,39.44,11.27l-13.8,33.21q-20-10.1-37.88-10.1-17.67,0-17.67,8.55,0,4.08,5.25,6.12t17.27,4.37a175,175,0,0,1,26.23,6.7,45.55,45.55,0,0,1,18.56,12.33q7.86,8.55,7.85,23.31A39.57,39.57,0,0,1,1546.75,365.66Z"/><rect class="cls-7" x="1714.97" y="80.42" width="101.31" height="51.82" rx="25.91" transform="translate(416.32 1250.06) rotate(-43.73)"/><rect class="cls-8" x="1778.7" y="197.32" width="101.31" height="51.82" rx="25.91" transform="translate(5.39 -40.41) rotate(1.27)"/><rect class="cls-9" x="1580.58" y="24.74" width="101.31" height="51.82" rx="25.91" transform="translate(1544.51 1680.36) rotate(-88.73)"/><path class="cls-10" d="M1727.94,604.53,1598.26,473.46c-9.44-9.54-19.18-18.8-28.24-28.68-22.21-24.24-21.7-58.24.85-79.83,22-21,54.73-20.8,78.26,1.71,21.93,21,42.88,43,64.31,64.53,1.94,1.95,4.26,3.53,7.31,6,17.49-20.5,38.54-30.94,66.56-23.06,15.75-23.6,37-36.41,65.88-30.88,4.4-4.13,8-7.42,11.51-10.82,16.39-15.93,36.41-20.86,56.53-11.65,18.26,8.36,36.24,19.44,51,33,30.65,28.16,60,57.92,88.25,88.47,97.48,105.21,46.23,274.83-93.35,308.84-40.22,9.8-80.36,6.2-118.1-11.29-45.49-21.09-90.49-43.28-135.31-65.78-29.21-14.67-40.82-42.58-30.93-70.47C1689.05,625.83,1700.58,615.54,1727.94,604.53Zm101.66,52c-6.89,20.21-10.44,22.18-26.28,15-19.28-8.79-38.18-18.44-57.43-27.32-11.15-5.14-20.85-2.86-27.36,8.08-6.32,10.63-3.09,20.6,9.1,28.55a119.54,119.54,0,0,0,13.06,7c39.4,19.19,78.68,38.61,118.26,57.4,44.45,21.1,89.55,20,132.94-1.68,91.24-45.59,111.19-163,40.91-238.65-26.93-29-55.22-56.69-83.56-84.31-9-8.77-19.66-16.11-30.42-22.7-10.37-6.36-21.36-6.51-31,2.67-3.93,11.57,1.77,19.28,9,26.59,8.94,9,18.8,17.46,26.08,27.7,3,4.21,2.71,14.76-.55,18.22-3,3.21-12.51,2.35-18.19.43-4.85-1.64-8.44-7.23-12.42-11.23-12.48-12.51-24.62-25.36-37.39-37.55-7.94-7.58-17.48-9.91-26.72-2.27-9.58,7.93-10.35,18.27-4.53,28.65,2.69,4.8,7.17,8.65,11.08,12.71C1844,474,1854,484,1863.87,494.12c6.24,6.41,8,13.77,1.72,20.75-6.52,7.23-13.92,5.35-20.58-.46-3.72-3.25-7.16-6.82-10.65-10.32-16-16-31.61-32.36-48-48-11.42-10.88-21.45-11.52-29.92-3.55-9.92,9.35-9.72,21.77.93,33.67,5.18,5.78,10.93,11.05,16.35,16.62,13.18,13.57,26.31,27.18,38.61,39.9-7.79,21.88-14.86,23.7-30.18,8.41-48.51-48.41-96.61-97.23-144.93-145.84-5.46-5.5-10.5-13-17.2-15.28-6.94-2.39-16.83-1.9-23.31,1.44-8.51,4.39-8.52,14.38-4.23,22.56,2.87,5.47,7.45,10.21,11.86,14.68q70,70.9,140.2,141.59C1772.86,598.91,1801.05,627.59,1829.6,656.55Z"/><path class="cls-2" d="M2091.68,635.41c18-59.76,3.2-123-39.55-169.13-29.9-32.27-57.78-60.22-85.24-85.45-12.79-11.75-29.3-22.42-47.75-30.87-20.88-9.57-37.36.18-47.5,10-2.32,2.25-4.68,4.45-7.3,6.88l-6.4,6-3.3-.63c-23.3-4.46-42,4.41-57.21,27.15l-2.65,4-4.6-1.29c-22.25-6.25-40.62.19-57.78,20.31l-4.19,4.91-5-4.08c-1-.79-1.85-1.48-2.67-2.12a52.15,52.15,0,0,1-4.92-4.18c-6.85-6.87-13.64-13.8-20.44-20.73-13.58-13.84-27.63-28.16-41.84-41.76-10.4-9.95-22.75-15-34.89-15-11.42,0-22.65,4.42-31.93,13.3-19.47,18.64-19.68,47.34-.52,68.25,6,6.51,12.4,12.89,18.63,19.07,2.87,2.85,5.75,5.7,8.59,8.57L1746,582.84l-9.18,3.69c-24.46,9.84-34.57,18.41-40.08,34-8.57,24.16,1.94,47.83,26.76,60.29,35.73,17.94,82.91,41.4,131.08,63.73,35.09,16.26,72.18,19.81,110.25,10.53C2026.23,740.08,2073.64,695.36,2091.68,635.41Z"/><path class="cls-1" d="M1734.18,580.4l-125.8-127.16c-9.16-9.25-18.61-18.23-27.4-27.82-21.55-23.52-21-56.5.82-77.44,21.32-20.42,53.1-20.19,75.92,1.65,21.28,20.36,41.6,41.73,62.39,62.6,1.89,1.9,4.14,3.43,7.1,5.85,17-19.89,37.39-30,64.57-22.38,15.28-22.89,35.93-35.32,63.91-29.95,4.27-4,7.77-7.2,11.17-10.5,15.9-15.45,35.32-20.24,54.83-11.3,17.72,8.11,35.16,18.86,49.46,32,29.73,27.32,58.16,56.19,85.62,85.83,94.57,102.06,44.84,266.62-90.56,299.61-39,9.51-78,6-114.57-10.95-44.14-20.46-87.79-42-131.27-63.82-28.34-14.23-39.6-41.3-30-68.36C1696.46,601.06,1707.64,591.08,1734.18,580.4Zm98.62,50.46c-6.68,19.6-10.13,21.52-25.49,14.52-18.71-8.54-37-17.9-55.71-26.51-10.82-5-20.23-2.77-26.55,7.84-6.13,10.31-3,20,8.83,27.7a115.83,115.83,0,0,0,12.67,6.81c38.22,18.62,76.33,37.45,114.73,55.68,43.12,20.47,86.87,19.41,129-1.63,88.5-44.22,107.86-158.18,39.68-231.52-26.12-28.1-53.57-55-81.06-81.79-8.73-8.5-19.08-15.62-29.52-22-10-6.17-20.72-6.32-30,2.59-3.81,11.23,1.72,18.71,8.73,25.8,8.67,8.77,18.24,16.94,25.31,26.87,2.9,4.08,2.62,14.31-.54,17.68-2.93,3.11-12.13,2.27-17.64.41-4.71-1.59-8.19-7-12.06-10.89-12.1-12.14-23.88-24.61-36.27-36.44-7.7-7.35-17-9.61-25.92-2.19-9.3,7.69-10,17.72-4.39,27.79,2.61,4.65,7,8.4,10.75,12.33,9.51,9.86,19.2,19.57,28.75,29.4,6,6.22,7.76,13.36,1.66,20.13-6.32,7-13.5,5.18-20-.45-3.6-3.16-6.94-6.62-10.33-10-15.49-15.53-30.67-31.4-46.54-46.53-11.07-10.56-20.8-11.18-29-3.44-9.62,9.07-9.43,21.11.91,32.66,5,5.61,10.6,10.72,15.85,16.13,12.79,13.16,25.53,26.36,37.46,38.7-7.56,21.22-14.41,23-29.28,8.16-47.06-47-93.72-94.33-140.6-141.48-5.3-5.34-10.18-12.58-16.68-14.82-6.73-2.33-16.33-1.85-22.62,1.39-8.25,4.26-8.27,13.95-4.1,21.88,2.78,5.31,7.22,9.91,11.51,14.25q67.9,68.77,136,137.36C1777.76,575,1805.1,602.77,1832.8,630.86Z"/></svg>