<?xml version="1.0" encoding="UTF-8"?>
<!DOCTYPE svg PUBLIC "-//W3C//DTD SVG 1.1//EN" "http://www.w3.org/Graphics/SVG/1.1/DTD/svg11.dtd">
<!-- Creator: CorelDRAW 2020 (64-Bit) -->
<svg xmlns="http://www.w3.org/2000/svg" xml:space="preserve" width="21.59mm" height="6.242mm" version="1.1" style="shape-rendering:geometricPrecision; text-rendering:geometricPrecision; image-rendering:optimizeQuality; fill-rule:evenodd; clip-rule:evenodd"
viewBox="0 0 861.64 249.11"
 xmlns:xlink="http://www.w3.org/1999/xlink"
 xmlns:xodm="http://www.corel.com/coreldraw/odm/2003">
 <defs>
  <style type="text/css">
   <![CDATA[
    .str0 {stroke:white;stroke-width:3.04;stroke-miterlimit:22.9256}
    .fil1 {fill:#274E5D}
    .fil0 {fill:white}
    .fil3 {fill:#23B5B7;fill-rule:nonzero}
    .fil6 {fill:white;fill-rule:nonzero}
    .fil4 {fill:url(#id0)}
    .fil5 {fill:url(#id1)}
    .fil2 {fill:url(#id2)}
    .fil7 {fill:url(#id3)}
   ]]>
  </style>
  <linearGradient id="id0" gradientUnits="userSpaceOnUse" x1="119.8" y1="221.02" x2="119.8" y2="120.25">
   <stop offset="0" style="stop-opacity:1; stop-color:#28465A"/>
   <stop offset="0.8" style="stop-opacity:1; stop-color:#266C67"/>
   <stop offset="1" style="stop-opacity:1; stop-color:#2995A1"/>
  </linearGradient>
  <linearGradient id="id1" gradientUnits="userSpaceOnUse" x1="198.52" y1="111.2" x2="197.87" y2="221.02">
   <stop offset="0" style="stop-opacity:1; stop-color:#277C7D"/>
   <stop offset="0.8" style="stop-opacity:1; stop-color:#052D39"/>
   <stop offset="1" style="stop-opacity:1; stop-color:#2995A1"/>
  </linearGradient>
  <linearGradient id="id2" gradientUnits="userSpaceOnUse" xlink:href="#id0" x1="41.41" y1="221.02" x2="41.41" y2="154.33">
  </linearGradient>
  <linearGradient id="id3" gradientUnits="userSpaceOnUse" x1="602.45" y1="98.26" x2="860.95" y2="98.26">
   <stop offset="0" style="stop-opacity:1; stop-color:#052D39"/>
   <stop offset="1" style="stop-opacity:1; stop-color:#21D4F1"/>
  </linearGradient>
 </defs>
 <g id="Capa_x0020_1">
  <metadata id="CorelCorpID_0Corel-Layer"/>
  <g id="_2026277077680">
   <path class="fil0" d="M46.56 0l144.5 0c25.61,0 46.56,20.95 46.56,46.56l0 149.66c0,25.61 -20.95,46.56 -46.56,46.56l-144.5 0c-25.61,0 -46.56,-20.95 -46.56,-46.56l0 -149.66c0,-25.61 20.95,-46.56 46.56,-46.56z"/>
   <path class="fil1" d="M58.19 110.54l-33.79 0c-3.9,0 -7.09,4.48 -7.09,9.83l0 91.13c0,5.34 3.19,9.52 7.09,9.52l33.79 0c3.89,0 7.31,-4.18 7.31,-9.52l0 -91.13c0,-5.35 -3.42,-9.83 -7.31,-9.83z"/>
   <path class="fil2" d="M17.32 186.74l0 24.76c0,5.34 3.19,9.52 7.09,9.52l33.79 0c3.89,0 7.31,-4.18 7.31,-9.52l0 -56.96c-8.98,4.78 -17.58,9.99 -26.09,15.62 -7.47,4.95 -14.74,10.35 -22.09,16.58z"/>
   <path class="fil3" d="M24.31 217.09c0,0 -0.07,0 -0.21,0 -0.14,0 -0.34,-0.02 -0.61,-0.07 -0.52,-0.12 -1.33,-0.43 -2.11,-1.4 -0.38,-0.48 -0.74,-1.12 -0.99,-1.92 -0.13,-0.4 -0.23,-0.83 -0.29,-1.31 -0.04,-0.23 -0.04,-0.47 -0.06,-0.72 -0.01,-0.24 -0.02,-0.47 -0.02,-0.71 -0.03,-0.95 -0.14,-1.96 -0.17,-3.03 -0.03,-1.07 -0.08,-2.19 -0.08,-3.36 0,-9.37 0,-21.86 0,-34.35 0,-12.5 0,-24.99 0,-34.35 0,-1.17 0.05,-2.29 0.08,-3.36 0.04,-1.07 0.1,-2.08 0.14,-3.03 0.06,-1.9 0.13,-3.56 0.17,-4.93 0.1,-2.73 0.16,-4.29 0.16,-4.29 0,0 0.06,1.56 0.16,4.29 0.04,1.36 0.1,3.03 0.16,4.93 0.03,0.95 -0.01,1.96 0.02,3.03 0.04,1.07 -0.07,2.19 -0.07,3.36 0,9.37 0,21.86 0,34.35 0,12.49 0,24.98 0,34.35 0,1.17 0.1,2.29 0.08,3.36 -0.04,1.07 -0.03,2.08 -0.06,3.03 -0.01,0.49 -0.02,0.92 0.02,1.33 0.02,0.42 0.1,0.81 0.19,1.18 0.18,0.74 0.47,1.36 0.79,1.84 0.66,0.97 1.4,1.39 1.9,1.58 0.26,0.08 0.46,0.14 0.6,0.15 0.14,0.02 0.21,0.04 0.21,0.04z"/>
   <path class="fil3" d="M58.02 115.03c0,0 0.07,0 0.21,0 0.14,0 0.34,-0.11 0.61,-0.06 0.52,0.12 1.33,0.37 2.1,1.33 0.38,0.48 0.74,1.09 0.99,1.89 0.13,0.4 0.23,0.82 0.29,1.29 0.04,0.23 0.04,0.47 0.06,0.71 0.01,0.24 0.02,0.47 0.02,0.71 0.03,0.95 -0.03,1.96 0,3.03 0.03,1.07 -0.09,2.19 -0.09,3.36 0,9.37 0,21.86 0,34.35 0,12.49 0,24.99 0,34.35 0,1.17 0.12,2.29 0.09,3.36 -0.04,1.07 -0.02,2.08 -0.05,3.03 -0.06,1.9 -0.09,3.56 -0.13,4.93 -0.1,2.73 -0.14,4.29 -0.14,4.29 0,0 -0.05,-1.56 -0.14,-4.29 -0.04,-1.37 -0.09,-3.03 -0.15,-4.93 -0.03,-0.95 -0.15,-1.96 -0.19,-3.03 -0.04,-1.07 -0.1,-2.19 -0.1,-3.36 0,-9.37 0,-21.86 0,-34.35 0,-12.49 0,-24.98 0,-34.35 0,-1.17 0.06,-2.29 0.09,-3.36 0.04,-1.07 0.11,-2.08 0.14,-3.03 0.02,-0.49 0.06,-0.92 0.03,-1.33 -0.02,-0.42 -0.08,-0.81 -0.17,-1.18 -0.18,-0.74 -0.46,-1.36 -0.78,-1.84 -0.66,-0.97 -1.4,-1.39 -1.9,-1.58 -0.26,-0.08 -0.46,-0.01 -0.59,-0.02 -0.14,-0.02 -0.21,0.09 -0.21,0.09z"/>
   <path class="fil1" d="M136.72 77.45l-33.79 0c-3.9,0 -7.22,4.25 -7.22,9.59l0 124.46c0,5.34 3.33,9.52 7.22,9.52l33.79 0c3.89,0 7.17,-4.18 7.17,-9.52l0 -124.46c0,-5.34 -3.28,-9.59 -7.17,-9.59z"/>
   <path class="fil4" d="M95.71 211.5c0,5.34 3.33,9.52 7.22,9.52l33.79 0c3.89,0 7.17,-4.18 7.17,-9.52l0 -87.46c-16.33,3.92 -32.26,9.18 -48.18,15.76l0 71.69z"/>
   <path class="fil3" d="M102.77 217.07c0,0 -0.1,0 -0.28,-0 -0.09,0 -0.2,-0.01 -0.34,-0.04 -0.14,-0.01 -0.29,-0.06 -0.47,-0.11 -0.35,-0.12 -0.77,-0.32 -1.22,-0.71 -0.45,-0.38 -0.91,-0.97 -1.27,-1.77 -0.37,-0.79 -0.61,-1.85 -0.63,-2.99 -0.02,-1.1 -0.05,-2.28 -0.08,-3.55 -0.03,-1.27 0.04,-2.62 0,-4.04 -0.03,-1.42 0.1,-2.92 0.1,-4.48 0,-12.48 0,-29.13 0,-45.78 0,-16.65 0,-33.3 0,-45.78 0,-1.56 -0.13,-3.06 -0.09,-4.48 0.03,-1.42 0.02,-2.77 0.04,-4.04 0.06,-2.54 0.09,-4.75 0.13,-6.57 0.1,-3.64 0.14,-5.72 0.14,-5.72 0,0 0.05,2.08 0.15,5.72 0.04,1.82 0.09,4.03 0.15,6.57 0.03,1.27 0.16,2.61 0.19,4.04 0.04,1.42 -0.3,2.92 0.1,4.48 0,12.49 0,29.14 0,45.78 0,16.65 0,33.3 0,45.78 -0.41,1.56 -0.07,3.06 -0.1,4.48 -0.03,1.42 -0.11,2.77 -0.14,4.04 -0.03,1.27 -0.08,2.45 -0.11,3.55 -0.03,1.05 0.12,2.01 0.44,2.78 0.3,0.77 0.7,1.36 1.1,1.77 0.4,0.42 0.8,0.65 1.14,0.81 0.17,0.07 0.32,0.13 0.45,0.16 0.13,0.04 0.24,0.06 0.34,0.07 0.18,0.02 0.28,0.04 0.28,0.04z"/>
   <path class="fil3" d="M136.48 81.53c0,0 0.1,0 0.28,0 0.09,-0 0.2,0.01 0.34,0.03 0.14,0.02 0.29,0.06 0.47,0.11 0.35,0.12 0.77,0.32 1.22,0.71 0.45,0.38 0.91,0.97 1.27,1.77 0.37,0.79 0.61,1.85 0.63,2.99 0.03,1.1 0.06,2.29 0.08,3.55 0.03,1.27 0.14,2.62 0.18,4.04 0.03,1.42 0.08,2.92 0.08,4.48 0,12.49 0,29.13 0,45.78 0,16.65 0,33.3 0,45.78 0,1.56 -0.05,3.06 -0.09,4.48 -0.03,1.42 -0.1,2.77 -0.14,4.04 -0.06,2.54 -0.13,4.75 -0.17,6.57 -0.1,3.64 -0.16,5.72 -0.16,5.72 0,0 -0.06,-2.08 -0.16,-5.72 -0.04,-1.82 -0.1,-4.03 -0.16,-6.57 -0.03,-1.27 0.02,-2.62 -0.01,-4.04 -0.04,-1.42 0.07,-2.92 0.07,-4.48 0,-12.48 0,-29.13 0,-45.78 0,-16.65 0,-33.3 0,-45.78 0,-1.56 -0.11,-3.06 -0.08,-4.48 0.03,-1.42 0.02,-2.77 0.06,-4.04 0.03,-1.27 0.04,-2.45 0.06,-3.55 0.04,-1.05 -0.15,-2.01 -0.45,-2.78 -0.3,-0.77 -0.71,-1.36 -1.11,-1.77 -0.4,-0.42 -0.81,-0.65 -1.14,-0.8 -0.17,-0.08 -0.32,-0.13 -0.45,-0.16 -0.13,-0.04 -0.24,-0.07 -0.34,-0.07 -0.18,-0.02 -0.28,-0.03 -0.28,-0.03z"/>
   <path class="fil1" d="M215.25 42.12l-33.79 0c-3.89,0 -7.36,4.5 -7.36,9.85l0 159.54c0,5.34 3.46,9.52 7.36,9.52l33.79 0c3.89,0 7.04,-4.18 7.04,-9.52l0 -159.54c0,-5.35 -3.14,-9.85 -7.04,-9.85z"/>
   <path class="fil5" d="M174.11 118.26l0 93.24c0,5.34 3.46,9.52 7.36,9.52l33.79 0c3.89,0 7.04,-4.18 7.04,-9.52l0 -95.78c-16.33,-0.46 -31.85,0.39 -48.18,2.55z"/>
   <path class="fil3" d="M181.53 217.07c0,0 -0.12,-0 -0.35,-0.01 -0.23,-0.02 -0.58,-0.07 -1.01,-0.26 -0.43,-0.19 -0.95,-0.53 -1.44,-1.14 -0.25,-0.31 -0.49,-0.67 -0.7,-1.12 -0.21,-0.44 -0.39,-0.95 -0.5,-1.53 -0.12,-0.56 -0.17,-1.23 -0.17,-1.85 -0.01,-0.63 -0.02,-1.3 -0.04,-1.99 -0.03,-1.38 -0.06,-2.89 -0.08,-4.49 -0.03,-1.6 -0.15,-3.3 -0.18,-5.1 -0.03,-1.8 -0.09,-3.68 -0.09,-5.65 0,-15.76 0,-36.78 0,-57.8 0,-21.02 0,-42.03 0,-57.79 0,-1.97 0.05,-3.86 0.09,-5.66 0.03,-1.8 0.11,-3.5 0.14,-5.1 0.06,-3.2 0.14,-5.99 0.18,-8.29 0.1,-4.6 0.16,-7.23 0.16,-7.23 0,0 0.06,2.63 0.16,7.23 0.04,2.3 0.1,5.09 0.16,8.29 0.03,1.6 -0.02,3.3 0.01,5.1 0.04,1.8 -0.08,3.68 -0.08,5.66 0,15.76 0,36.78 0,57.79 0,21.02 0,42.03 0,57.8 0,1.97 0.12,3.86 0.08,5.65 -0.03,1.8 -0.02,3.5 -0.05,5.1 -0.03,1.6 -0.04,3.1 -0.06,4.49 -0.01,0.69 -0.01,1.36 -0.02,1.99 -0.02,0.65 0,1.2 0.09,1.75 0.09,0.54 0.24,1.03 0.42,1.46 0.18,0.44 0.39,0.8 0.61,1.11 0.45,0.62 0.93,1 1.34,1.22 0.41,0.23 0.75,0.3 0.98,0.34 0.23,0.03 0.35,0.04 0.35,0.04z"/>
   <path class="fil3" d="M215.24 46.59c0,0 0.12,0 0.35,0.01 0.23,0.02 0.58,0.06 1.01,0.26 0.43,0.19 0.95,0.53 1.44,1.15 0.25,0.3 0.49,0.67 0.7,1.12 0.21,0.44 0.39,0.96 0.5,1.53 0.12,0.56 0.17,1.23 0.17,1.85 0.01,0.63 0.02,1.3 0.04,1.99 0.02,1.38 0.05,2.89 0.08,4.49 0.03,1.6 -0.04,3.3 -0,5.1 0.03,1.8 -0.1,3.68 -0.1,5.65 0,15.76 0,36.78 0,57.8 0,21.02 0,42.03 0,57.79 0,1.97 0.13,3.86 0.09,5.66 -0.03,1.8 -0.01,3.5 -0.04,5.1 -0.06,3.2 -0.09,5.99 -0.13,8.29 -0.1,4.6 -0.14,7.22 -0.14,7.22 0,0 -0.05,-2.63 -0.15,-7.22 -0.04,-2.3 -0.09,-5.09 -0.15,-8.29 -0.03,-1.6 -0.16,-3.3 -0.19,-5.1 -0.04,-1.8 0.3,-3.68 -0.11,-5.66 0,-15.76 0,-36.78 0,-57.79 0,-21.02 0,-42.03 0,-57.8 0.41,-1.97 0.07,-3.86 0.1,-5.65 0.03,-1.8 0.12,-3.5 0.14,-5.1 0.03,-1.6 0.08,-3.1 0.11,-4.49 0.01,-0.69 0.04,-1.36 0.05,-1.99 0.02,-0.65 0.01,-1.2 -0.08,-1.75 -0.08,-0.54 -0.23,-1.03 -0.41,-1.46 -0.18,-0.44 -0.39,-0.8 -0.61,-1.11 -0.45,-0.62 -0.93,-1 -1.34,-1.22 -0.41,-0.23 -0.75,-0.3 -0.98,-0.34 -0.23,-0.02 -0.35,-0.04 -0.35,-0.04z"/>
   <path class="fil6" d="M297.98 249.11c6.68,0 10.22,-3.93 10.22,-10.57l0 -6.08 -6.56 0 0 6.57c0,2.83 -1.39,3.94 -3.47,3.94 -2.08,0 -3.47,-1.11 -3.47,-3.94l0 -24.03c0,-2.83 1.38,-3.99 3.47,-3.99 2.08,0 3.47,1.17 3.47,3.99l0 4.98 6.56 0 0 -4.55c0,-6.64 -3.53,-10.57 -10.22,-10.57 -6.68,0 -10.22,3.93 -10.22,10.57l0 23.1c0,6.64 3.53,10.57 10.22,10.57zm26.08 0c6.81,0 10.53,-3.93 10.53,-10.81l0 -22.61c0,-6.88 -3.72,-10.82 -10.53,-10.82 -6.81,0 -10.53,3.93 -10.53,10.82l0 22.61c0,6.88 3.72,10.81 10.53,10.81zm0 -6.14c-2.21,0 -3.6,-1.17 -3.6,-4.24l0 -23.47c0,-3.07 1.38,-4.24 3.6,-4.24 2.21,0 3.59,1.17 3.59,4.24l0 23.47c0,3.07 -1.38,4.24 -3.59,4.24zm16.74 5.53l6.18 0 0 -31.4 0.13 0 8.32 31.4 7.13 0 0 -43.01 -6.18 0 0 25.75 -0.13 0 -6.74 -25.75 -8.7 0 0 43.01zm37.49 0.61c6.81,0 10.47,-3.93 10.47,-10.94 0,-5.35 -1.83,-8.79 -7.63,-13.76 -4.54,-3.87 -5.99,-6.15 -5.99,-9.28 0,-2.95 1.26,-4.12 3.47,-4.12 2.2,0 3.46,1.17 3.46,4.24l6.56 2.21 0 -1.78c0,-6.88 -3.34,-10.82 -10.09,-10.82 -6.74,0 -10.34,3.93 -10.34,10.69 0,4.92 1.89,8.42 7.69,13.39 4.54,3.87 5.93,6.15 5.93,9.71 0,3.19 -1.39,4.3 -3.6,4.3 -2.21,0 -3.59,-1.11 -3.59,-4.18l0 -2.95 -6.56 0 0 2.46c0,6.88 3.41,10.81 10.22,10.81zm15.99 -0.61l6.94 0 0 -43.01 -6.94 0 0 43.01zm23.49 0.61c6.81,0 10.34,-3.93 10.34,-10.81l0 -14.07 -10.03 0 0 6.14 3.47 0 0 8.42c0,3.07 -1.38,4.18 -3.59,4.18 -2.21,0 -3.6,-1.11 -3.6,-4.18l0 -23.53c0,-3.07 1.38,-4.24 3.6,-4.24 2.21,0 3.59,1.17 3.59,4.24l0 4.11 6.56 0 0 -3.68c0,-6.88 -3.54,-10.82 -10.34,-10.82 -6.81,0 -10.34,3.93 -10.34,10.82l0 22.61c0,6.88 3.53,10.81 10.34,10.81zm26.46 0c6.81,0 10.34,-3.93 10.34,-10.81l0 -32.81 -6.68 0 0 33.3c0,3.07 -1.32,4.18 -3.53,4.18 -2.21,0 -3.53,-1.11 -3.53,-4.18l0 -33.3 -6.94 0 0 32.81c0,6.88 3.53,10.81 10.34,10.81zm16.8 -0.61l18.92 0 0 -6.14 -11.98 0 0 -13.21 9.52 0 0 -6.14 -9.52 0 0 -11.37 11.98 0 0 -6.15 -18.92 0 0 43.01zm34.53 0.61c6.81,0 10.34,-3.93 10.34,-10.81l0 -32.81 -6.68 0 0 33.3c0,3.07 -1.32,4.18 -3.53,4.18 -2.21,0 -3.54,-1.11 -3.54,-4.18l0 -33.3 -6.94 0 0 32.81c0,6.88 3.53,10.81 10.34,10.81zm16.8 -0.61l6.18 0 0 -31.4 0.13 0 8.32 31.4 7.13 0 0 -43.01 -6.18 0 0 25.75 -0.13 0 -6.74 -25.75 -8.7 0 0 43.01zm28.47 0l6.94 0 0 -17.51 3.28 0c6.94,0 10.34,-3.75 10.34,-10.63l0 -4.24c0,-6.88 -3.4,-10.63 -10.34,-10.63l-10.22 0 0 43.01zm6.94 -23.66l0 -13.21 3.28 0c2.21,0 3.4,0.98 3.4,4.05l0 5.1c0,3.07 -1.2,4.05 -3.4,4.05l-3.28 0zm18.95 23.66l6.94 0 0 -18.43 2.39 0c3.15,0 4.35,1.29 4.35,5.28l0 7.87c0,3.5 0.25,4.17 0.63,5.28l7.06 0c-0.69,-1.6 -0.76,-3.13 -0.76,-5.22l0 -7.55c0,-4.85 -1.13,-8.05 -4.6,-9.1l0 -0.12c3.08,-1.23 4.53,-4.05 4.53,-8.48l0 -2.64c0,-6.64 -3.09,-9.89 -10.28,-9.89l-10.27 0 0 43.01zm6.94 -24.58l0 -12.28 3.15 0c2.46,0 3.53,1.35 3.53,4.42l0 3.32c0,3.44 -1.58,4.55 -4.16,4.55l-2.52 0zm20.02 24.58l18.92 0 0 -6.14 -11.98 0 0 -13.21 9.52 0 0 -6.14 -9.52 0 0 -11.37 11.98 0 0 -6.15 -18.92 0 0 43.01zm33.58 0.61c6.81,0 10.46,-3.93 10.46,-10.94 0,-5.35 -1.82,-8.79 -7.63,-13.76 -4.54,-3.87 -5.99,-6.15 -5.99,-9.28 0,-2.95 1.26,-4.12 3.47,-4.12 2.21,0 3.47,1.17 3.47,4.24l0 2.21 6.56 0 0 -1.78c0,-6.88 -3.34,-10.82 -10.09,-10.82 -6.74,0 -10.34,3.93 -10.34,10.69 0,4.92 1.89,8.42 7.69,13.39 4.54,3.87 5.93,6.15 5.93,9.71 0,3.19 -1.39,4.3 -3.6,4.3 -2.2,0 -3.59,-1.11 -3.59,-4.18l0 -2.95 -6.56 0 0 2.46c0,6.88 3.41,10.81 10.22,10.81zm21.41 -0.61l6.94 0 0 -36.86 7.25 0 0 -6.15 -21.44 0 0 6.15 7.25 0 0 36.86zm14.35 0l6.43 0 1.26 -8.42 7.88 0 0 -0.12 1.26 8.54 6.93 0 -7.18 -43.01 -9.4 0 -7.19 43.01zm8.51 -14.25l3.03 -21.26 0.13 0 3.09 21.26 -6.24 0zm20.15 14.25l6.05 0 0 -32.57 0.12 0 5.04 32.57 5.8 0 5.04 -32.57 0.13 0 0 32.57 6.56 0 0 -43.01 -9.9 0 -4.42 30.78 -0.12 0 -4.42 -30.78 -9.9 0 0 43.01zm45.49 0.61c6.81,0 10.53,-3.93 10.53,-10.81l0 -22.61c0,-6.88 -3.72,-10.82 -10.53,-10.82 -6.81,0 -10.53,3.93 -10.53,10.82l0 22.61c0,6.88 3.72,10.81 10.53,10.81zm0 -6.14c-2.21,0 -3.59,-1.17 -3.59,-4.24l0 -23.47c0,-3.07 1.38,-4.24 3.59,-4.24 2.21,0 3.6,1.17 3.6,4.24l0 23.47c0,3.07 -1.38,4.24 -3.6,4.24zm16.37 5.53l6.68 0 0 -6.51 -6.68 0 0 6.51zm22.8 0.61c6.68,0 10.22,-3.93 10.22,-10.57l0 -6.08 -6.56 0 0 6.57c0,2.83 -1.39,3.94 -3.47,3.94 -2.08,0 -3.47,-1.11 -3.47,-3.94l0 -24.03c0,-2.83 1.39,-3.99 3.47,-3.99 2.08,0 3.47,1.17 3.47,3.99l0 4.98 6.56 0 0 -4.55c0,-6.64 -3.54,-10.57 -10.22,-10.57 -6.68,0 -10.22,3.93 -10.22,10.57l0 23.1c0,6.64 3.53,10.57 10.22,10.57zm26.08 0c6.81,0 10.53,-3.93 10.53,-10.81l0 -22.61c0,-6.88 -3.72,-10.82 -10.53,-10.82 -6.81,0 -10.53,3.93 -10.53,10.82l0 22.61c0,6.88 3.72,10.81 10.53,10.81zm0 -6.14c-2.21,0 -3.6,-1.17 -3.6,-4.24l0 -23.47c0,-3.07 1.39,-4.24 3.6,-4.24 2.2,0 3.59,1.17 3.59,4.24l0 23.47c0,3.07 -1.39,4.24 -3.59,4.24zm16.74 5.53l6.05 0 0 -32.57 0.12 0 5.04 32.57 5.8 0 5.05 -32.57 0.12 0 0 32.57 6.56 0 0 -43.01 -9.9 0 -4.41 30.78 -0.12 0 -4.42 -30.78 -9.9 0 0 43.01z"/>
   <path class="fil7" d="M856.39 23.77l-40.86 10.95c-3.1,0.83 -4.13,4.7 -1.87,6.96l10.23 10.23 -54.38 54.1 -29.86 -29.86 -43.62 43.62 -25.59 -25.59 -67.99 67.99 10.02 10.02 57.96 -57.96 25.59 25.58 43.62 -43.62 29.84 29.84 64.43 -64.1 9.66 9.66c2.27,2.27 6.14,1.23 6.96,-1.86l10.95 -40.86c0.83,-3.1 -2,-5.93 -5.1,-5.1z"/>
   <path class="fil6 str0" d="M325.68 185.27c28.53,0 43.6,-15.99 43.6,-42.97l0 -24.74 -27.99 0 0 26.74c0,11.49 -5.92,15.99 -14.8,15.99 -8.88,0 -14.8,-4.5 -14.8,-15.99l0 -97.69c0,-11.49 5.92,-16.24 14.8,-16.24 8.88,0 14.8,4.75 14.8,16.24l0 20.24 27.99 0 0 -18.49c0,-26.98 -15.07,-42.97 -43.6,-42.97 -28.53,0 -43.6,15.99 -43.6,42.97l0 93.95c0,26.99 15.07,42.97 43.6,42.97zm113.51 0c29.07,0 44.14,-15.99 44.14,-43.98l0 -133.42 -28.53 0 0 135.42c0,12.49 -5.66,16.99 -15.07,16.99 -9.42,0 -15.07,-4.5 -15.07,-16.99l0 -135.42 -29.6 0 0 133.42c0,27.99 15.07,43.98 44.14,43.98zm74.22 -2.5l29.6 0 0 -71.21 14 0c29.6,0 44.14,-15.24 44.14,-43.22l0 -17.24c0,-27.98 -14.53,-43.23 -44.14,-43.23l-43.6 0 0 174.9zm29.6 -96.19l0 -53.72 14 0c9.41,0 14.53,3.99 14.53,16.49l0 20.74c0,12.49 -5.12,16.49 -14.53,16.49l-14 0zm58.34 96.19l28.53 0 0 -26.48 -28.53 0 0 26.48z"/>
  </g>
 </g>
</svg>
